<svg width="32" height="32" viewBox="0 0 32 32" fill="none" xmlns="http://www.w3.org/2000/svg">
<g clip-path="url(#clip0_124_7900)">
<path d="M16.0296 30.9009C16.0674 30.9257 16.1114 30.9392 16.1565 30.9399C16.2017 30.9406 16.2461 30.9284 16.2846 30.9048C18.8616 29.3403 21.8421 22.7515 21.8431 17.568C21.8469 16.6471 21.7703 15.7275 21.6144 14.8199C22.4845 14.0912 23.2248 13.2328 23.6091 12.2545C24.6853 9.48616 23.0374 6.7189 22.2437 5.61334C22.2006 5.55252 22.1439 5.50253 22.0782 5.46732C22.0125 5.4321 21.9395 5.41261 21.8649 5.41038C21.7904 5.40815 21.7164 5.42325 21.6487 5.45448C21.5809 5.48571 21.5214 5.53222 21.4747 5.59036L18.7283 9.0177C18.4934 8.78718 18.2469 8.56876 17.9897 8.36328C17.8136 8.21819 17.5922 8.13938 17.364 8.14054L14.9761 8.14337C14.7479 8.14246 14.5265 8.22124 14.3503 8.36611C14.0945 8.57039 13.8493 8.78751 13.6156 9.01664L10.8713 5.59496C10.8246 5.53691 10.765 5.49048 10.6973 5.45931C10.6296 5.42814 10.5556 5.41308 10.4811 5.41531C10.4066 5.41754 10.3336 5.43699 10.2679 5.47214C10.2022 5.5073 10.1455 5.5572 10.1023 5.61794C9.30647 6.71784 7.65467 9.48899 8.73584 12.2524C9.12015 13.2306 9.85483 14.087 10.7189 14.8139C10.5617 15.7228 10.484 16.6438 10.4866 17.5663C10.4735 22.754 13.3575 29.2258 16.0296 30.9009ZM16.1675 18.0584C16.6423 18.0583 17.1064 18.1989 17.5012 18.4626C17.896 18.7262 18.2037 19.101 18.3855 19.5396C18.5672 19.9782 18.6148 20.4608 18.5222 20.9264C18.4297 21.3921 18.2011 21.8198 17.8654 22.1555C17.5297 22.4912 17.102 22.7198 16.6363 22.8123C16.1707 22.9049 15.6881 22.8573 15.2495 22.6756C14.8109 22.4938 14.4361 22.1861 14.1725 21.7913C13.9088 21.3965 13.7682 20.9324 13.7683 20.4576C13.7681 20.1425 13.83 19.8304 13.9505 19.5392C14.071 19.248 14.2477 18.9835 14.4705 18.7606C14.6934 18.5378 14.9579 18.3611 15.2491 18.2406C15.5403 18.1201 15.8524 18.0582 16.1675 18.0584Z" fill="#828282"/>
<path d="M14.193 7.19919C14.1927 6.81134 14.4278 6.42491 14.7371 5.98615C15.4343 5.00256 16.9026 4.98665 17.6013 5.98721C17.8657 6.36692 18.1468 6.98883 18.1468 7.20096C18.1463 7.24688 18.1604 7.29177 18.1869 7.32926C18.2134 7.36675 18.2511 7.39494 18.2945 7.40981C18.338 7.42468 18.385 7.42549 18.4289 7.41212C18.4729 7.39874 18.5115 7.37187 18.5392 7.33531C18.9517 6.80785 19.1758 6.15757 19.176 5.48799C19.1753 3.82488 16.1669 0.659511 16.1669 0.659511C16.1669 0.659511 13.1567 3.82664 13.1575 5.48976C13.1563 6.1601 13.3808 6.81132 13.7949 7.33849C13.9296 7.49936 14.1976 7.40743 14.193 7.19919Z" fill="#828282"/>
</g>
<defs>
<clipPath id="clip0_124_7900">
<rect width="32" height="32" fill="white"/>
</clipPath>
</defs>
</svg>
