<svg width="104" height="249" viewBox="0 0 104 249" fill="none" xmlns="http://www.w3.org/2000/svg">
<path d="M52.5 1C52.5 0.723858 52.2761 0.5 52 0.5C51.7239 0.5 51.5 0.723858 51.5 1L52.5 1ZM51.6465 163.354C51.8417 163.549 52.1583 163.549 52.3536 163.354L55.5355 160.172C55.7308 159.976 55.7308 159.66 55.5355 159.464C55.3403 159.269 55.0237 159.269 54.8284 159.464L52 162.293L49.1716 159.464C48.9763 159.269 48.6597 159.269 48.4645 159.464C48.2692 159.66 48.2692 159.976 48.4645 160.172L51.6465 163.354ZM51.5 1L51.5 163L52.5 163L52.5 1L51.5 1Z" fill="url(#paint0_linear_140_7821)"/>
<path d="M30.26 213.6H31.46V220.956H36.008V222H30.26V213.6ZM39.5682 215.58C40.4482 215.58 41.1202 215.796 41.5842 216.228C42.0562 216.66 42.2922 217.304 42.2922 218.16V222H41.2002V221.16C41.0082 221.456 40.7322 221.684 40.3722 221.844C40.0202 221.996 39.6002 222.072 39.1122 222.072C38.4002 222.072 37.8282 221.9 37.3962 221.556C36.9722 221.212 36.7602 220.76 36.7602 220.2C36.7602 219.64 36.9642 219.192 37.3722 218.856C37.7802 218.512 38.4282 218.34 39.3162 218.34H41.1402V218.112C41.1402 217.616 40.9962 217.236 40.7082 216.972C40.4202 216.708 39.9962 216.576 39.4362 216.576C39.0602 216.576 38.6922 216.64 38.3322 216.768C37.9722 216.888 37.6682 217.052 37.4202 217.26L36.9402 216.396C37.2682 216.132 37.6602 215.932 38.1162 215.796C38.5722 215.652 39.0562 215.58 39.5682 215.58ZM39.3042 221.184C39.7442 221.184 40.1242 221.088 40.4442 220.896C40.7642 220.696 40.9962 220.416 41.1402 220.056V219.168H39.3642C38.3882 219.168 37.9002 219.496 37.9002 220.152C37.9002 220.472 38.0242 220.724 38.2722 220.908C38.5202 221.092 38.8642 221.184 39.3042 221.184ZM50.352 215.64V222H49.26V221.04C49.028 221.368 48.72 221.624 48.336 221.808C47.96 221.984 47.548 222.072 47.1 222.072C46.252 222.072 45.584 221.84 45.096 221.376C44.608 220.904 44.364 220.212 44.364 219.3V215.64H45.516V219.168C45.516 219.784 45.664 220.252 45.96 220.572C46.256 220.884 46.68 221.04 47.232 221.04C47.84 221.04 48.32 220.856 48.672 220.488C49.024 220.12 49.2 219.6 49.2 218.928V215.64H50.352ZM55.9411 215.58C56.7491 215.58 57.3891 215.816 57.8611 216.288C58.3411 216.752 58.5811 217.436 58.5811 218.34V222H57.4291V218.472C57.4291 217.856 57.2811 217.392 56.9851 217.08C56.6891 216.768 56.2651 216.612 55.7131 216.612C55.0891 216.612 54.5971 216.796 54.2371 217.164C53.8771 217.524 53.6971 218.044 53.6971 218.724V222H52.5451V215.64H53.6491V216.6C53.8811 216.272 54.1931 216.02 54.5851 215.844C54.9851 215.668 55.4371 215.58 55.9411 215.58ZM63.5203 222.072C62.8723 222.072 62.2923 221.932 61.7803 221.652C61.2763 221.372 60.8803 220.988 60.5923 220.5C60.3043 220.004 60.1603 219.444 60.1603 218.82C60.1603 218.196 60.3043 217.64 60.5923 217.152C60.8803 216.656 61.2763 216.272 61.7803 216C62.2923 215.72 62.8723 215.58 63.5203 215.58C64.0963 215.58 64.6083 215.696 65.0563 215.928C65.5123 216.16 65.8643 216.496 66.1123 216.936L65.2363 217.5C65.0363 217.196 64.7883 216.968 64.4923 216.816C64.1963 216.664 63.8683 216.588 63.5083 216.588C63.0923 216.588 62.7163 216.68 62.3803 216.864C62.0523 217.048 61.7923 217.312 61.6003 217.656C61.4163 217.992 61.3243 218.38 61.3243 218.82C61.3243 219.268 61.4163 219.664 61.6003 220.008C61.7923 220.344 62.0523 220.604 62.3803 220.788C62.7163 220.972 63.0923 221.064 63.5083 221.064C63.8683 221.064 64.1963 220.988 64.4923 220.836C64.7883 220.684 65.0363 220.456 65.2363 220.152L66.1123 220.704C65.8643 221.144 65.5123 221.484 65.0563 221.724C64.6083 221.956 64.0963 222.072 63.5203 222.072ZM70.9177 215.58C71.7257 215.58 72.3657 215.816 72.8377 216.288C73.3177 216.752 73.5577 217.436 73.5577 218.34V222H72.4057V218.472C72.4057 217.856 72.2577 217.392 71.9617 217.08C71.6657 216.768 71.2417 216.612 70.6897 216.612C70.0657 216.612 69.5737 216.796 69.2137 217.164C68.8537 217.524 68.6737 218.044 68.6737 218.724V222H67.5217V213.096H68.6737V216.54C68.9137 216.236 69.2257 216 69.6097 215.832C70.0017 215.664 70.4377 215.58 70.9177 215.58Z" fill="#F2F2F2"/>
<path d="M104 197C104 225.719 80.7188 249 52 249C23.2812 249 0 225.719 0 197C0 168.281 23.2812 145 52 145C80.7188 145 104 168.281 104 197ZM1.56 197C1.56 224.857 24.1428 247.44 52 247.44C79.8572 247.44 102.44 224.857 102.44 197C102.44 169.143 79.8572 146.56 52 146.56C24.1428 146.56 1.56 169.143 1.56 197Z" fill="url(#paint1_linear_140_7821)"/>
<defs>
<linearGradient id="paint0_linear_140_7821" x1="52.0004" y1="163" x2="52" y2="1" gradientUnits="userSpaceOnUse">
<stop stop-color="#828282"/>
<stop offset="1" stop-color="#828282" stop-opacity="0"/>
</linearGradient>
<linearGradient id="paint1_linear_140_7821" x1="52" y1="145" x2="52" y2="249" gradientUnits="userSpaceOnUse">
<stop stop-color="#828282" stop-opacity="0"/>
<stop offset="1" stop-color="#828282"/>
</linearGradient>
</defs>
</svg>
