<svg width="289" height="420" viewBox="0 0 289 420" fill="none" xmlns="http://www.w3.org/2000/svg">
<path d="M78.749 372.254C78.756 377.415 80.285 382.46 83.144 386.757L97.154 407.817C102.015 415.13 110.211 419.524 118.991 419.525H169.582C178.362 419.525 186.558 415.13 191.419 407.818L205.436 386.757C208.296 382.46 209.825 377.415 209.831 372.254L209.863 340.815H78.709L78.75 372.254H78.749Z" fill="#312C4F"/>
<path d="M0.000130001 144.287C-0.0468671 179.219 12.6501 212.968 35.7111 239.205C49.2541 254.658 70.4381 286.942 78.5141 314.176C78.5461 314.389 78.5711 314.602 78.6041 314.815H209.969C210.002 314.602 210.027 314.397 210.059 314.176C218.136 286.942 239.319 254.658 252.862 239.205C275.922 212.968 288.619 179.219 288.573 144.287C288.573 64.4467 223.734 -0.245303 143.835 0.000699279C60.2061 0.255689 0.000130001 68.0207 0.000130001 144.287ZM144.286 78.6997C108.08 78.7407 78.7401 108.081 78.6991 144.287C78.6991 151.532 72.8261 157.404 65.5821 157.404C58.3371 157.404 52.4651 151.532 52.4651 144.287C52.5201 93.5987 93.5981 52.5227 144.286 52.4687C151.531 52.4687 157.403 58.3417 157.403 65.5857C157.403 72.8297 151.531 78.7027 144.286 78.7027V78.6997Z" fill="#E8D22A"/>
</svg>
