<svg width="1882" height="1018" viewBox="0 0 1882 1018" fill="none" xmlns="http://www.w3.org/2000/svg">
<ellipse opacity="0.21" cx="635.817" cy="725.999" rx="1.99942" ry="2" fill="white"/>
<ellipse opacity="0.21" cx="635.817" cy="786.999" rx="1.99942" ry="2" fill="white"/>
<ellipse opacity="0.21" cx="365.893" cy="908.999" rx="1.99942" ry="2" fill="white"/>
<ellipse cx="1304.63" cy="958.999" rx="0.999695" ry="1" fill="white"/>
<ellipse cx="879.748" cy="43" rx="0.999725" ry="1" fill="white"/>
<ellipse opacity="0.6" cx="991.716" cy="106" rx="0.999725" ry="1" fill="white"/>
<ellipse cx="1597.54" cy="212" rx="0.999695" ry="1" fill="white"/>
<ellipse opacity="0.4" cx="1620.54" cy="999.999" rx="1.99945" ry="2" fill="white"/>
<ellipse opacity="0.8" cx="1601.54" cy="1017" rx="0.999756" ry="1" fill="white"/>
<ellipse opacity="0.8" cx="1823.48" cy="975.999" rx="0.999695" ry="1" fill="white"/>
<ellipse opacity="0.8" cx="1843.48" cy="935.999" rx="0.999695" ry="1" fill="white"/>
<ellipse opacity="0.5" cx="1804.49" cy="323.999" rx="0.999695" ry="1" fill="white"/>
<ellipse cx="1880.46" cy="484.999" rx="0.999695" ry="1" fill="white"/>
<ellipse opacity="0.5" cx="1857.47" cy="171" rx="0.999756" ry="1" fill="white"/>
<ellipse opacity="0.8" cx="1418.1" cy="1.5" rx="1.49957" ry="1.5" fill="white"/>
<ellipse cx="1227.65" cy="720.999" rx="0.999695" ry="1" fill="white"/>
<ellipse cx="1345.62" cy="253.999" rx="0.999695" ry="1" fill="white"/>
<ellipse opacity="0.2" cx="1653.53" cy="233" rx="1.99939" ry="2" fill="white"/>
<ellipse opacity="0.2" cx="1533.56" cy="420.999" rx="1.99939" ry="2" fill="white"/>
<ellipse opacity="0.2" cx="1774.49" cy="683.999" rx="1.99945" ry="2" fill="white"/>
<ellipse cx="780.777" cy="294.999" rx="1" ry="1.00027" fill="white"/>
<ellipse opacity="0.2" cx="536.844" cy="144" rx="1.99945" ry="2" fill="white"/>
<ellipse cx="328.403" cy="55.5" rx="1.49959" ry="1.5" fill="white"/>
<ellipse cx="16.9915" cy="225" rx="0.999717" ry="1" fill="white"/>
<ellipse opacity="0.4" cx="59.9794" cy="265.999" rx="1.99944" ry="2" fill="white"/>
<ellipse opacity="0.4" cx="2.99553" cy="701.999" rx="1.99943" ry="2" fill="white"/>
<ellipse cx="408.881" cy="785.999" rx="0.999725" ry="1" fill="white"/>
<ellipse cx="539.844" cy="704.999" rx="0.999725" ry="1" fill="white"/>
<ellipse opacity="0.21" cx="203.939" cy="891.999" rx="1.99944" ry="2" fill="white"/>
<ellipse opacity="0.21" cx="556.839" cy="590.999" rx="1.99945" ry="2" fill="white"/>
<ellipse opacity="0.4" cx="183.944" cy="425.999" rx="1.99944" ry="2" fill="white"/>
<ellipse opacity="0.2" cx="154.953" cy="336.999" rx="1.99943" ry="2" fill="white"/>
<ellipse cx="1211.65" cy="249.999" rx="0.999756" ry="1" fill="white"/>
<ellipse cx="1152.67" cy="419.999" rx="0.999756" ry="1" fill="white"/>
</svg>
