<svg width="31" height="22" viewBox="0 0 31 22" fill="none" xmlns="http://www.w3.org/2000/svg">
<path opacity="0.4" fill-rule="evenodd" clip-rule="evenodd" d="M14.9982 22C21.0716 22 25.9951 17.0751 25.9951 11C25.9951 10.5534 25.9685 10.1131 25.9168 9.68042C29.3867 6.87759 31.2679 4.31135 30.5342 2.95651C29.8145 1.62768 26.7448 1.7702 22.6245 3.07493C20.6474 1.17082 17.9595 0 14.9982 0C8.92478 0 4.0013 4.92487 4.0013 11C4.0013 11.8376 4.09489 12.6533 4.27217 13.4372C1.77423 15.7255 0.525261 17.737 1.14566 18.8824C1.78041 20.0544 4.24307 20.0819 7.64232 19.177C9.5908 20.9319 12.1698 22 14.9982 22ZM4.57681 14.5212C3.50036 15.5491 2.75154 16.4625 2.34015 17.2025C1.89544 18.0024 1.98414 18.3308 2.02487 18.406C2.06559 18.4812 2.29214 18.7349 3.2049 18.7992C4.06121 18.8595 5.25647 18.7264 6.7335 18.375C6.76231 18.3681 6.79119 18.3612 6.82017 18.3542C5.83102 17.2543 5.06043 15.9539 4.57681 14.5212ZM23.3863 3.8863C24.5078 5.20817 25.3226 6.79859 25.7208 8.54754C26.2041 8.1439 26.6507 7.74741 27.0572 7.36138C28.1582 6.31573 28.9225 5.38689 29.3397 4.63645C29.7844 3.83654 29.6957 3.50815 29.6549 3.43296C29.6142 3.35777 29.3877 3.10408 28.4749 3.0398C27.6186 2.97949 26.4233 3.11252 24.9463 3.46397C24.4505 3.58195 23.9294 3.72296 23.3863 3.8863Z" fill="url(#paint0_linear_124_7873)"/>
<defs>
<linearGradient id="paint0_linear_124_7873" x1="2.48786" y1="17.5" x2="30.9829" y2="3.50637" gradientUnits="userSpaceOnUse">
<stop stop-color="#FFBD15"/>
<stop offset="0.372258" stop-color="#48DEE8"/>
<stop offset="0.576841" stop-color="#D0A57D"/>
<stop offset="1" stop-color="#04E1FF"/>
</linearGradient>
</defs>
</svg>
