<svg width="66" height="66" viewBox="0 0 66 66" fill="none" xmlns="http://www.w3.org/2000/svg">
<g filter="url(#filter0_d_179_11914)">
<path d="M33 41C37.4183 41 41 37.4183 41 33C41 28.5817 37.4183 25 33 25C28.5817 25 25 28.5817 25 33C25 37.4183 28.5817 41 33 41ZM33 25.32C37.2415 25.32 40.68 28.7585 40.68 33C40.68 37.2415 37.2415 40.68 33 40.68C28.7585 40.68 25.32 37.2415 25.32 33C25.32 28.7585 28.7585 25.32 33 25.32Z" fill="url(#paint0_linear_179_11914)"/>
</g>
<g clip-path="url(#clip0_179_11914)">
<path d="M33.0079 29.2744C33.0173 29.2682 33.0283 29.2649 33.0396 29.2647C33.0509 29.2645 33.062 29.2676 33.0716 29.2735C33.7159 29.6646 34.461 31.3118 34.4613 32.6077C34.4622 32.8379 34.4431 33.0678 34.4041 33.2947C34.6216 33.4769 34.8067 33.6915 34.9028 33.936C35.1718 34.6281 34.7598 35.3199 34.5614 35.5963C34.5506 35.6115 34.5365 35.624 34.52 35.6328C34.5036 35.6416 34.4854 35.6465 34.4667 35.6471C34.4481 35.6476 34.4296 35.6439 34.4127 35.636C34.3957 35.6282 34.3808 35.6166 34.3692 35.6021L33.6826 34.7452C33.6238 34.8029 33.5622 34.8575 33.4979 34.9088C33.4539 34.9451 33.3985 34.9648 33.3415 34.9645L32.7445 34.9638C32.6875 34.964 32.6321 34.9444 32.5881 34.9081C32.5241 34.8571 32.4628 34.8028 32.4044 34.7455L31.7183 35.6009C31.7066 35.6154 31.6917 35.627 31.6748 35.6348C31.6579 35.6426 31.6394 35.6464 31.6208 35.6458C31.6021 35.6453 31.5839 35.6404 31.5675 35.6316C31.551 35.6228 31.5369 35.6104 31.5261 35.5952C31.3271 35.3202 30.9142 34.6274 31.1844 33.9366C31.2805 33.692 31.4642 33.4779 31.6802 33.2962C31.6409 33.069 31.6215 32.8387 31.6221 32.6081C31.6189 31.3112 32.3399 29.6932 33.0079 29.2744ZM33.0424 32.4851C33.1611 32.4851 33.2771 32.4499 33.3758 32.384C33.4745 32.3181 33.5514 32.2244 33.5969 32.1148C33.6423 32.0051 33.6542 31.8845 33.631 31.7681C33.6079 31.6516 33.5508 31.5447 33.4668 31.4608C33.3829 31.3769 33.276 31.3197 33.1596 31.2966C33.0432 31.2734 32.9225 31.2853 32.8129 31.3308C32.7032 31.3762 32.6095 31.4531 32.5436 31.5518C32.4777 31.6505 32.4425 31.7666 32.4426 31.8853C32.4425 31.964 32.458 32.0421 32.4881 32.1149C32.5182 32.1877 32.5624 32.2538 32.6181 32.3095C32.6738 32.3652 32.74 32.4094 32.8128 32.4395C32.8856 32.4696 32.9636 32.4851 33.0424 32.4851Z" fill="#333333"/>
<path d="M32.5436 35.2001C32.5435 35.297 32.6023 35.3936 32.6796 35.5033C32.8539 35.7492 33.221 35.7532 33.3957 35.5031C33.4618 35.4081 33.5321 35.2527 33.5321 35.1996C33.5319 35.1881 33.5355 35.1769 33.5421 35.1675C33.5487 35.1582 33.5581 35.1511 33.569 35.1474C33.5799 35.1437 33.5916 35.1435 33.6026 35.1468C33.6136 35.1502 33.6232 35.1569 33.6302 35.166C33.7333 35.2979 33.7893 35.4605 33.7894 35.6279C33.7892 36.0436 33.0371 36.835 33.0371 36.835C33.0371 36.835 32.2845 36.0432 32.2847 35.6274C32.2844 35.4598 32.3406 35.297 32.4441 35.1652C32.4778 35.125 32.5448 35.148 32.5436 35.2001Z" fill="#333333"/>
</g>
<g filter="url(#filter1_i_179_11914)">
<circle r="8" transform="matrix(0 1 1 0 33 33)" fill="url(#paint1_linear_179_11914)" fill-opacity="0.08"/>
</g>
<defs>
<filter id="filter0_d_179_11914" x="0.930929" y="0.930929" width="64.1381" height="64.1381" filterUnits="userSpaceOnUse" color-interpolation-filters="sRGB">
<feFlood flood-opacity="0" result="BackgroundImageFix"/>
<feColorMatrix in="SourceAlpha" type="matrix" values="0 0 0 0 0 0 0 0 0 0 0 0 0 0 0 0 0 0 127 0" result="hardAlpha"/>
<feOffset/>
<feGaussianBlur stdDeviation="12.0345"/>
<feComposite in2="hardAlpha" operator="out"/>
<feColorMatrix type="matrix" values="0 0 0 0 0.184314 0 0 0 0 0.501961 0 0 0 0 0.929412 0 0 0 1 0"/>
<feBlend mode="normal" in2="BackgroundImageFix" result="effect1_dropShadow_179_11914"/>
<feBlend mode="normal" in="SourceGraphic" in2="effect1_dropShadow_179_11914" result="shape"/>
</filter>
<filter id="filter1_i_179_11914" x="25" y="25" width="16" height="17.8052" filterUnits="userSpaceOnUse" color-interpolation-filters="sRGB">
<feFlood flood-opacity="0" result="BackgroundImageFix"/>
<feBlend mode="normal" in="SourceGraphic" in2="BackgroundImageFix" result="shape"/>
<feColorMatrix in="SourceAlpha" type="matrix" values="0 0 0 0 0 0 0 0 0 0 0 0 0 0 0 0 0 0 127 0" result="hardAlpha"/>
<feOffset dy="1.80518"/>
<feGaussianBlur stdDeviation="1.80518"/>
<feComposite in2="hardAlpha" operator="arithmetic" k2="-1" k3="1"/>
<feColorMatrix type="matrix" values="0 0 0 0 1 0 0 0 0 1 0 0 0 0 1 0 0 0 0.14 0"/>
<feBlend mode="normal" in2="shape" result="effect1_innerShadow_179_11914"/>
</filter>
<linearGradient id="paint0_linear_179_11914" x1="25" y1="33" x2="41" y2="33" gradientUnits="userSpaceOnUse">
<stop stop-color="#333333"/>
<stop offset="1" stop-color="#333333"/>
</linearGradient>
<linearGradient id="paint1_linear_179_11914" x1="8" y1="0" x2="8" y2="16" gradientUnits="userSpaceOnUse">
<stop stop-color="#C4C4C4" stop-opacity="0"/>
<stop offset="1" stop-color="#C4C4C4"/>
</linearGradient>
<clipPath id="clip0_179_11914">
<rect width="8" height="8" fill="white" transform="matrix(1 0 0 -1 29 37)"/>
</clipPath>
</defs>
</svg>
