<svg width="114" height="116" viewBox="0 0 114 116" fill="none" xmlns="http://www.w3.org/2000/svg">
<g filter="url(#filter0_f_179_94482)">
<path d="M49.2116 33.0663C52.8535 31.0773 54.6745 30.0828 56.6571 30.0828C58.6398 30.0828 60.4608 31.0773 64.1027 33.0663L75.1189 39.0827C79.0615 41.236 81.0328 42.3126 82.1199 44.1449C83.207 45.9773 83.207 48.2235 83.207 52.7158V63.2842C83.207 67.7765 83.207 70.0227 82.1199 71.8551C81.0328 73.6874 79.0615 74.764 75.1189 76.9173L64.1027 82.9337C60.4608 84.9227 58.6398 85.9172 56.6571 85.9172C54.6745 85.9172 52.8535 84.9227 49.2116 82.9337L38.1954 76.9173C34.2528 74.764 32.2815 73.6874 31.1944 71.8551C30.1073 70.0227 30.1073 67.7765 30.1073 63.2842V52.7158C30.1073 48.2235 30.1073 45.9773 31.1944 44.1449C32.2815 42.3126 34.2528 41.236 38.1954 39.0827L49.2116 33.0663Z" fill="black"/>
<path d="M49.6087 33.7935C51.4432 32.7916 52.7694 32.0683 53.8834 31.5901C54.9814 31.1187 55.817 30.9114 56.6571 30.9114C57.4973 30.9114 58.3329 31.1187 59.4309 31.5901C60.5449 32.0683 61.8711 32.7916 63.7056 33.7935L74.7217 39.8099C76.7075 40.8944 78.143 41.6795 79.2223 42.418C80.2863 43.1459 80.9469 43.7917 81.4073 44.5677C81.8677 45.3438 82.1178 46.233 82.2467 47.5157C82.3775 48.8169 82.3784 50.4531 82.3784 52.7158V63.2842C82.3784 65.5469 82.3775 67.1831 82.2467 68.4843C82.1178 69.767 81.8677 70.6562 81.4073 71.4323C80.9469 72.2083 80.2863 72.8541 79.2223 73.582C78.143 74.3205 76.7075 75.1056 74.7217 76.1901L63.7056 82.2065C61.8711 83.2084 60.5449 83.9317 59.4309 84.4099C58.3329 84.8813 57.4973 85.0886 56.6571 85.0886C55.817 85.0886 54.9814 84.8813 53.8834 84.4099C52.7694 83.9317 51.4432 83.2084 49.6087 82.2065L38.5926 76.1901C36.6068 75.1056 35.1713 74.3205 34.0919 73.582C33.028 72.8541 32.3674 72.2083 31.907 71.4323C31.4466 70.6562 31.1965 69.767 31.0676 68.4843C30.9368 67.1831 30.9359 65.5469 30.9359 63.2842V52.7158C30.9359 50.4531 30.9368 48.8169 31.0676 47.5157C31.1965 46.233 31.4466 45.3438 31.907 44.5677C32.3674 43.7917 33.028 43.1459 34.0919 42.418C35.1712 41.6795 36.6068 40.8944 38.5926 39.8099L49.6087 33.7935Z" stroke="black" stroke-width="1.65714"/>
</g>
<path d="M49.2437 36.6319C51.0627 35.644 52.4071 34.9141 53.5429 34.4292C54.6723 33.9469 55.5731 33.717 56.4994 33.717C57.4258 33.717 58.3265 33.9469 59.4559 34.4292C60.5917 34.9141 61.9361 35.644 63.7551 36.6319L71.7634 40.9815C73.748 42.0594 75.2149 42.8565 76.3238 43.6117C77.4266 44.3628 78.1524 45.0577 78.6649 45.9192C79.1773 46.7807 79.4415 47.7502 79.5752 49.0777C79.7096 50.4126 79.71 52.0821 79.71 54.3405V61.4329C79.71 63.6914 79.7096 65.3608 79.5752 66.6958C79.4415 68.0233 79.1773 68.9928 78.6649 69.8543C78.1524 70.7157 77.4266 71.4106 76.3238 72.1617C75.2149 72.9169 73.748 73.7141 71.7634 74.792L63.7551 79.1415C61.9361 80.1295 60.5917 80.8593 59.4559 81.3442C58.3265 81.8265 57.4258 82.0564 56.4994 82.0564C55.5731 82.0564 54.6723 81.8265 53.5429 81.3442C52.4071 80.8593 51.0627 80.1295 49.2437 79.1415L41.2354 74.792C39.2508 73.7141 37.7839 72.9169 36.675 72.1617C35.5723 71.4106 34.8464 70.7157 34.3339 69.8543C33.8215 68.9928 33.5573 68.0233 33.4236 66.6958C33.2892 65.3608 33.2888 63.6914 33.2888 61.4329V54.3405C33.2888 52.0821 33.2892 50.4126 33.4236 49.0777C33.5573 47.7502 33.8215 46.7807 34.3339 45.9192C34.8464 45.0577 35.5723 44.3628 36.675 43.6117C37.7839 42.8565 39.2508 42.0594 41.2354 40.9815L49.2437 36.6319Z" fill="#2F2E41" stroke="#252437" stroke-width="0.662857"/>
<g filter="url(#filter1_dd_179_94482)">
<mask id="mask0_179_94482" style="mask-type:alpha" maskUnits="userSpaceOnUse" x="44" y="46" width="24" height="22">
<path d="M53.4993 51.122C54.5774 47.8115 55.1165 46.1562 56.0796 46.023C56.2208 46.0035 56.364 46.0035 56.5052 46.023C57.4684 46.1562 58.0074 47.8115 59.0855 51.122C59.3842 52.0393 59.5336 52.4979 59.8743 52.7839C59.93 52.8306 59.989 52.8734 60.0507 52.9119C60.4281 53.1474 60.911 53.1474 61.8768 53.1474C65.356 53.1474 67.0956 53.1474 67.5224 54.015C67.5882 54.1487 67.6343 54.2911 67.6595 54.4378C67.8232 55.3909 66.4172 56.4101 63.6053 58.4485C62.8248 59.0142 62.4345 59.2971 62.2671 59.7088C62.2391 59.7778 62.216 59.8487 62.1982 59.9209C62.0914 60.3524 62.2407 60.8108 62.5393 61.7276C63.6145 65.0293 64.1521 66.6801 63.4575 67.3547C63.3521 67.4571 63.2327 67.544 63.1029 67.6128C62.2475 68.0664 60.8381 67.0448 58.0194 65.0015C57.2353 64.433 56.8432 64.1488 56.3984 64.1184C56.3278 64.1136 56.257 64.1136 56.1864 64.1184C55.7417 64.1488 55.3496 64.433 54.5654 65.0015C51.7467 67.0448 50.3373 68.0664 49.4819 67.6128C49.3521 67.544 49.2327 67.4571 49.1273 67.3547C48.4328 66.6801 48.9704 65.0293 50.0456 61.7276C50.3441 60.8108 50.4934 60.3524 50.3867 59.9209C50.3688 59.8487 50.3458 59.7778 50.3177 59.7088C50.1503 59.2971 49.7601 59.0142 48.9796 58.4485C46.1676 56.4101 44.7616 55.3909 44.9253 54.4378C44.9505 54.2911 44.9967 54.1487 45.0624 54.015C45.4893 53.1474 47.2289 53.1474 50.7081 53.1474C51.6739 53.1474 52.1568 53.1474 52.5342 52.9119C52.5959 52.8734 52.6548 52.8306 52.7105 52.7839C53.0513 52.4979 53.2006 52.0393 53.4993 51.122Z" fill="white"/>
</mask>
<g mask="url(#mask0_179_94482)">
<path d="M53.4993 51.122C54.5774 47.8115 55.1165 46.1562 56.0796 46.023C56.2208 46.0035 56.364 46.0035 56.5052 46.023C57.4684 46.1562 58.0074 47.8115 59.0855 51.122C59.3842 52.0393 59.5336 52.4979 59.8743 52.7839C59.93 52.8306 59.989 52.8734 60.0507 52.9119C60.4281 53.1474 60.911 53.1474 61.8768 53.1474C65.356 53.1474 67.0956 53.1474 67.5224 54.015C67.5882 54.1487 67.6343 54.2911 67.6595 54.4378C67.8232 55.3909 66.4172 56.4101 63.6053 58.4485C62.8248 59.0142 62.4345 59.2971 62.2671 59.7088C62.2391 59.7778 62.216 59.8487 62.1982 59.9209C62.0914 60.3524 62.2407 60.8108 62.5393 61.7276C63.6145 65.0293 64.1521 66.6801 63.4575 67.3547C63.3521 67.4571 63.2327 67.544 63.1029 67.6128C62.2475 68.0664 60.8381 67.0448 58.0194 65.0015C57.2353 64.433 56.8432 64.1488 56.3984 64.1184C56.3278 64.1136 56.257 64.1136 56.1864 64.1184C55.7417 64.1488 55.3496 64.433 54.5654 65.0015C51.7467 67.0448 50.3373 68.0664 49.4819 67.6128C49.3521 67.544 49.2327 67.4571 49.1273 67.3547C48.4328 66.6801 48.9704 65.0293 50.0456 61.7276C50.3441 60.8108 50.4934 60.3524 50.3867 59.9209C50.3688 59.8487 50.3458 59.7778 50.3177 59.7088C50.1503 59.2971 49.7601 59.0142 48.9796 58.4485C46.1676 56.4101 44.7616 55.3909 44.9253 54.4378C44.9505 54.2911 44.9967 54.1487 45.0624 54.015C45.4893 53.1474 47.2289 53.1474 50.7081 53.1474C51.6739 53.1474 52.1568 53.1474 52.5342 52.9119C52.5959 52.8734 52.6548 52.8306 52.7105 52.7839C53.0513 52.4979 53.2006 52.0393 53.4993 51.122Z" fill="white"/>
<g opacity="0.3" filter="url(#filter2_i_179_94482)">
<path d="M55.9059 57.7636C53.1552 57.3478 50.4791 57.6618 47.75 58.0854V73.6009L69.8436 74.3524L68.9491 54.1374C69.0181 54.1719 68.8901 54.1374 69.2311 53.7964C68.5558 54.0051 68.5492 53.7965 66.7343 54.9552C66.3073 55.2293 65.8634 55.4513 65.4183 55.6918C64.8991 55.9725 64.4856 56.3855 63.9855 56.6908C63.1122 57.2238 62.2001 57.806 61.1914 58.033C60.407 58.2095 59.5011 58.1658 58.7024 58.1188C57.7635 58.0636 56.8358 57.9042 55.9059 57.7636Z" fill="#00E8DA"/>
</g>
<g filter="url(#filter3_ii_179_94482)">
<path d="M49.5906 57.7585C48.3655 57.9486 48.388 58.0881 47.5675 58.7701L47.0439 74.007L73.2066 72.7806L71.3295 53.5596C70.2969 53.3531 69.5626 53.4455 68.5589 53.9C66.9102 54.6465 65.7622 56.26 64.3441 57.3386C63.4917 57.9869 62.6693 58.7309 61.6339 59.0437C60.8474 59.2812 60.0983 59.4215 59.2704 59.3967C58.3663 59.3698 57.4811 59.1881 56.6302 58.8878C55.9229 58.6382 55.2272 58.1598 54.6039 58.0226C53.0089 57.6715 51.2116 57.507 49.5906 57.7585Z" fill="#00E8DA"/>
</g>
</g>
</g>
<defs>
<filter id="filter0_f_179_94482" x="0.278852" y="0.254194" width="112.757" height="115.492" filterUnits="userSpaceOnUse" color-interpolation-filters="sRGB">
<feFlood flood-opacity="0" result="BackgroundImageFix"/>
<feBlend mode="normal" in="SourceGraphic" in2="BackgroundImageFix" result="shape"/>
<feGaussianBlur stdDeviation="14.9143" result="effect1_foregroundBlur_179_94482"/>
</filter>
<filter id="filter1_dd_179_94482" x="40.8205" y="41.9167" width="33.6718" height="32.622" filterUnits="userSpaceOnUse" color-interpolation-filters="sRGB">
<feFlood flood-opacity="0" result="BackgroundImageFix"/>
<feColorMatrix in="SourceAlpha" type="matrix" values="0 0 0 0 0 0 0 0 0 0 0 0 0 0 0 0 0 0 127 0" result="hardAlpha"/>
<feOffset dx="1.36388" dy="1.36388"/>
<feGaussianBlur stdDeviation="2.72776"/>
<feColorMatrix type="matrix" values="0 0 0 0 0 0 0 0 0 0 0 0 0 0 0 0 0 0 0.08 0"/>
<feBlend mode="normal" in2="BackgroundImageFix" result="effect1_dropShadow_179_94482"/>
<feColorMatrix in="SourceAlpha" type="matrix" values="0 0 0 0 0 0 0 0 0 0 0 0 0 0 0 0 0 0 127 0" result="hardAlpha"/>
<feOffset dy="2.72776"/>
<feGaussianBlur stdDeviation="1.36388"/>
<feColorMatrix type="matrix" values="0 0 0 0 0 0 0 0 0 0 0 0 0 0 0 0 0 0 0.08 0"/>
<feBlend mode="normal" in2="effect1_dropShadow_179_94482" result="effect2_dropShadow_179_94482"/>
<feBlend mode="normal" in="SourceGraphic" in2="effect2_dropShadow_179_94482" result="shape"/>
</filter>
<filter id="filter2_i_179_94482" x="47.75" y="53.7964" width="23.4576" height="21.9198" filterUnits="userSpaceOnUse" color-interpolation-filters="sRGB">
<feFlood flood-opacity="0" result="BackgroundImageFix"/>
<feBlend mode="normal" in="SourceGraphic" in2="BackgroundImageFix" result="shape"/>
<feColorMatrix in="SourceAlpha" type="matrix" values="0 0 0 0 0 0 0 0 0 0 0 0 0 0 0 0 0 0 127 0" result="hardAlpha"/>
<feOffset dx="1.36388" dy="1.36388"/>
<feGaussianBlur stdDeviation="1.36388"/>
<feComposite in2="hardAlpha" operator="arithmetic" k2="-1" k3="1"/>
<feColorMatrix type="matrix" values="0 0 0 0 0 0 0 0 0 0 0 0 0 0 0 0 0 0 0.25 0"/>
<feBlend mode="normal" in2="shape" result="effect1_innerShadow_179_94482"/>
</filter>
<filter id="filter3_ii_179_94482" x="44.3162" y="53.4551" width="31.6186" height="23.2798" filterUnits="userSpaceOnUse" color-interpolation-filters="sRGB">
<feFlood flood-opacity="0" result="BackgroundImageFix"/>
<feBlend mode="normal" in="SourceGraphic" in2="BackgroundImageFix" result="shape"/>
<feColorMatrix in="SourceAlpha" type="matrix" values="0 0 0 0 0 0 0 0 0 0 0 0 0 0 0 0 0 0 127 0" result="hardAlpha"/>
<feOffset dx="2.72776" dy="2.72776"/>
<feGaussianBlur stdDeviation="1.36388"/>
<feComposite in2="hardAlpha" operator="arithmetic" k2="-1" k3="1"/>
<feColorMatrix type="matrix" values="0 0 0 0 0 0 0 0 0 0 0 0 0 0 0 0 0 0 0.12 0"/>
<feBlend mode="normal" in2="shape" result="effect1_innerShadow_179_94482"/>
<feColorMatrix in="SourceAlpha" type="matrix" values="0 0 0 0 0 0 0 0 0 0 0 0 0 0 0 0 0 0 127 0" result="hardAlpha"/>
<feOffset dx="-2.72776"/>
<feGaussianBlur stdDeviation="2.72776"/>
<feComposite in2="hardAlpha" operator="arithmetic" k2="-1" k3="1"/>
<feColorMatrix type="matrix" values="0 0 0 0 0 0 0 0 0 0 0 0 0 0 0 0 0 0 0.08 0"/>
<feBlend mode="normal" in2="effect1_innerShadow_179_94482" result="effect2_innerShadow_179_94482"/>
</filter>
</defs>
</svg>
