<svg width="109" height="112" viewBox="0 0 109 112" fill="none" xmlns="http://www.w3.org/2000/svg">
<g filter="url(#filter0_f_179_96224)">
<path d="M47.3355 31.9129C50.8399 29.9989 52.5921 29.042 54.5 29.042C56.4079 29.042 58.1601 29.9989 61.6645 31.9129L72.2649 37.7022C76.0587 39.7741 77.9556 40.8101 79.0017 42.5733C80.0477 44.3365 80.0477 46.4979 80.0477 50.8206V60.9902C80.0477 65.3129 80.0477 67.4743 79.0017 69.2375C77.9556 71.0007 76.0587 72.0367 72.2649 74.1087L61.6645 79.898C58.1601 81.8119 56.4079 82.7688 54.5 82.7688C52.5921 82.7688 50.8399 81.8119 47.3355 79.898L36.7351 74.1086C32.9413 72.0367 31.0444 71.0007 29.9983 69.2375C28.9523 67.4743 28.9523 65.3129 28.9523 60.9902V50.8206C28.9523 46.4979 28.9523 44.3365 29.9983 42.5733C31.0444 40.8101 32.9413 39.7741 36.7351 37.7022L47.3355 31.9129Z" fill="#FFC629" fill-opacity="0.3"/>
</g>
<path d="M47.2128 35.0639C50.7031 33.1682 52.4483 32.2204 54.3469 32.2204C56.2455 32.2204 57.9906 33.1682 61.4809 35.0639L69.187 39.2493C72.9952 41.3177 74.8993 42.3519 75.9498 44.1178C77.0003 45.8838 77.0003 48.0507 77.0003 52.3844V59.2091C77.0003 63.5428 77.0003 65.7096 75.9498 67.4756C74.8993 69.2416 72.9952 70.2758 69.187 72.3441L61.4809 76.5295C57.9906 78.4252 56.2455 79.373 54.3469 79.373C52.4483 79.373 50.7031 78.4252 47.2128 76.5295L39.5068 72.3441C35.6986 70.2758 33.7945 69.2416 32.744 67.4756C31.6935 65.7096 31.6935 63.5428 31.6935 59.2091V52.3844C31.6935 48.0507 31.6935 45.8838 32.744 44.1178C33.7945 42.3519 35.6986 41.3177 39.5068 39.2493L47.2128 35.0639Z" fill="#FFC629"/>
<rect x="44.457" y="49.9688" width="20.4695" height="3.07043" rx="1.53522" fill="white"/>
<rect x="47.2476" y="44.8508" width="14.8869" height="3.07043" rx="1.53522" fill="white"/>
<rect x="47.2476" y="55.085" width="14.8869" height="3.07043" rx="1.53522" fill="white"/>
<rect x="49.1162" y="60.2034" width="10.2348" height="3.07043" rx="1.53522" fill="white"/>
<rect x="51.9067" y="65.3206" width="5.5826" height="3.07043" rx="1.53522" fill="white"/>
<defs>
<filter id="filter0_f_179_96224" x="0.249445" y="0.339289" width="108.501" height="111.132" filterUnits="userSpaceOnUse" color-interpolation-filters="sRGB">
<feFlood flood-opacity="0" result="BackgroundImageFix"/>
<feBlend mode="normal" in="SourceGraphic" in2="BackgroundImageFix" result="shape"/>
<feGaussianBlur stdDeviation="14.3514" result="effect1_foregroundBlur_179_96224"/>
</filter>
</defs>
</svg>
